<svg width="241" height="51" viewBox="0 0 241 51" fill="none" xmlns="http://www.w3.org/2000/svg">
<path d="M47.6016 30.1719C47.6016 30.7969 47.2578 31.5156 46.5703 32.3281C45.9141 33.1094 45.0703 33.9375 44.0391 34.8125C43.0078 35.6562 41.8516 36.5156 40.5703 37.3906C39.3203 38.2344 38.0703 39.0312 36.8203 39.7812C35.6016 40.5312 34.4609 41.2031 33.3984 41.7969C32.3672 42.3594 31.5547 42.7969 30.9609 43.1094C30.3047 43.4531 29.6328 43.7656 28.9453 44.0469C28.2578 44.3281 27.6016 44.6562 26.9766 45.0312C26.6641 45.1875 26.3828 45.375 26.1328 45.5938C25.8828 45.7812 25.6328 45.9688 25.3828 46.1562C24.8516 46.5312 24.3516 46.7656 23.8828 46.8594C23.4141 46.9531 22.9922 47.0625 22.6172 47.1875C22.2734 47.3125 22.0078 47.5312 21.8203 47.8438C21.6328 48.1875 21.5391 48.75 21.5391 49.5312C20.7266 49.5312 19.9297 49.4531 19.1484 49.2969C18.3672 49.1719 17.5859 49.1094 16.8047 49.1094C16.3047 49.1094 15.8203 49.1719 15.3516 49.2969C14.9141 49.4531 14.4609 49.6094 13.9922 49.7656C13.5547 49.9219 13.1016 50.0625 12.6328 50.1875C12.1953 50.3438 11.7266 50.4219 11.2266 50.4219H9.11719C8.89844 50.1094 8.66406 49.8594 8.41406 49.6719C8.16406 49.4844 7.89844 49.3125 7.61719 49.1562C7.36719 49.0312 7.10156 48.9062 6.82031 48.7812C6.57031 48.6562 6.32031 48.4844 6.07031 48.2656C5.72656 47.9219 5.36719 47.5156 4.99219 47.0469C4.61719 46.5781 4.25781 46.125 3.91406 45.6875C3.28906 44.9375 2.77344 44.0938 2.36719 43.1562C1.92969 42.2188 1.58594 41.25 1.33594 40.25C1.05469 39.2188 0.851562 38.1875 0.726562 37.1562C0.601562 36.0938 0.539062 35.0938 0.539062 34.1562C0.539062 33.9375 0.632812 33.5312 0.820312 32.9375C0.976562 32.3125 1.17969 31.6562 1.42969 30.9688C1.64844 30.2812 1.88281 29.625 2.13281 29C2.38281 28.375 2.57031 27.9375 2.69531 27.6875C2.69531 27.5938 2.82031 27.3594 3.07031 26.9844C3.28906 26.5781 3.57031 26.1094 3.91406 25.5781C4.25781 25.0469 4.63281 24.4688 5.03906 23.8438C5.44531 23.1875 5.83594 22.5781 6.21094 22.0156C6.58594 21.4531 6.91406 20.9531 7.19531 20.5156C7.47656 20.0469 7.67969 19.7188 7.80469 19.5312C7.99219 19.25 8.32031 18.7812 8.78906 18.125C9.28906 17.4688 9.86719 16.7344 10.5234 15.9219C11.1797 15.1094 11.8828 14.2812 12.6328 13.4375C13.3828 12.5938 14.1016 11.8438 14.7891 11.1875C15.5078 10.5 16.1484 9.98438 16.7109 9.64062C17.3047 9.26562 17.7578 9.14062 18.0703 9.26562C19.3828 7.51562 21.0391 6.23438 23.0391 5.42188C25.0391 4.57812 27.1016 4.15625 29.2266 4.15625C29.9453 4.15625 30.6641 4.125 31.3828 4.0625C32.1328 3.96875 32.8516 4.14062 33.5391 4.57812C33.8516 5.14062 34.1797 5.89062 34.5234 6.82812C34.8984 7.76562 35.2266 8.76562 35.5078 9.82812C35.8203 10.8594 36.0703 11.875 36.2578 12.875C36.4453 13.8438 36.5391 14.6406 36.5391 15.2656C36.5391 16.0156 36.3672 16.7188 36.0234 17.375C35.7109 18.0312 35.3203 18.6719 34.8516 19.2969C34.3828 19.9219 33.8984 20.5469 33.3984 21.1719C32.9297 21.7656 32.5391 22.375 32.2266 23C31.9766 23.5 31.6641 24.2031 31.2891 25.1094C30.9453 26.0156 30.5391 26.9219 30.0703 27.8281C29.6016 28.7031 29.0859 29.4688 28.5234 30.125C27.9609 30.7812 27.3516 31.1094 26.6953 31.1094C26.3516 31.1094 25.9766 30.9062 25.5703 30.5C25.1641 30.0938 24.9609 29.7188 24.9609 29.375C24.9609 28.0938 25.1641 26.875 25.5703 25.7188C25.9766 24.5625 26.4766 23.4531 27.0703 22.3906C27.6641 21.2969 28.3203 20.2344 29.0391 19.2031C29.7578 18.1406 30.4141 17.0781 31.0078 16.0156C31.6016 14.9531 32.1016 13.875 32.5078 12.7812C32.9141 11.6562 33.1172 10.4844 33.1172 9.26562C33.1172 8.82812 33.0703 8.35938 32.9766 7.85938C32.9141 7.32812 32.6641 6.9375 32.2266 6.6875H30.0703C29.2578 6.6875 28.3984 6.75 27.4922 6.875C26.5859 6.96875 25.8203 7.32812 25.1953 7.95312C24.9453 8.20312 24.6953 8.48438 24.4453 8.79688C24.2266 9.07812 23.9922 9.34375 23.7422 9.59375C23.6797 9.65625 23.5859 9.76562 23.4609 9.92188C23.3359 10.0469 23.1953 10.1875 23.0391 10.3438C22.9141 10.5 22.7734 10.6406 22.6172 10.7656C22.4922 10.8906 22.3984 10.9688 22.3359 11C22.2109 11.0625 22.0703 11.125 21.9141 11.1875C21.7891 11.25 21.6641 11.3125 21.5391 11.375C21.2891 11.5 21.0391 11.625 20.7891 11.75C20.5391 11.8438 20.2891 11.9688 20.0391 12.125C19.3828 12.5625 18.7891 13.0781 18.2578 13.6719C17.7578 14.2656 17.2578 14.875 16.7578 15.5C16.2891 16.125 15.7891 16.7188 15.2578 17.2812C14.7266 17.8438 14.1016 18.3125 13.3828 18.6875C12.5703 20.0312 11.6641 21.4531 10.6641 22.9531C9.69531 24.4219 8.77344 25.9375 7.89844 27.5C7.02344 29.0625 6.28906 30.6562 5.69531 32.2812C5.10156 33.9062 4.80469 35.5156 4.80469 37.1094C4.80469 37.7656 4.86719 38.5312 4.99219 39.4062C5.11719 40.25 5.33594 41.0781 5.64844 41.8906C5.96094 42.7031 6.35156 43.4219 6.82031 44.0469C7.32031 44.6719 7.94531 45.0781 8.69531 45.2656C8.91406 45.3281 9.13281 45.3594 9.35156 45.3594C9.60156 45.3281 9.83594 45.3125 10.0547 45.3125C10.2734 45.3125 10.4766 45.3281 10.6641 45.3594C10.8828 45.3906 11.0703 45.5 11.2266 45.6875H13.8047C14.3984 45.6875 14.9453 45.6406 15.4453 45.5469C15.9453 45.4531 16.4297 45.3281 16.8984 45.1719C17.3672 44.9844 17.8359 44.7969 18.3047 44.6094C18.7734 44.3906 19.2734 44.1719 19.8047 43.9531C20.1172 43.8594 20.3984 43.7656 20.6484 43.6719C20.8984 43.5781 21.1641 43.4844 21.4453 43.3906C22.1328 43.2031 22.8047 43.0469 23.4609 42.9219C24.1172 42.7969 24.7578 42.5781 25.3828 42.2656C26.1328 41.8906 26.8359 41.4688 27.4922 41C28.1797 40.5312 28.8984 40.0938 29.6484 39.6875C29.8672 39.5938 30.1328 39.5312 30.4453 39.5C30.7891 39.4688 31.1328 39.4531 31.4766 39.4531C31.8203 39.4219 32.1328 39.3906 32.4141 39.3594C32.7266 39.3281 32.9453 39.25 33.0703 39.125C33.3516 38.8438 33.6172 38.5625 33.8672 38.2812C34.1484 37.9688 34.4453 37.6719 34.7578 37.3906C35.2891 37.2969 35.7891 37.0938 36.2578 36.7812C36.7266 36.4688 37.2266 36.2656 37.7578 36.1719C37.9141 36.1094 38.0547 36.0469 38.1797 35.9844C38.3359 35.8906 38.4922 35.7969 38.6484 35.7031C39.0859 35.4531 39.5078 35.1875 39.9141 34.9062C40.3203 34.625 40.7266 34.3594 41.1328 34.1094C43.1328 32.7656 45.1484 31.4531 47.1797 30.1719H47.6016ZM73.8984 42.0781C73.4609 42.8281 73.1172 43.4375 72.8672 43.9062C72.6484 44.3438 72.4141 44.7188 72.1641 45.0312C71.9453 45.3125 71.6797 45.5781 71.3672 45.8281C71.0859 46.0469 70.6797 46.3281 70.1484 46.6719C69.8047 46.9844 69.4609 47.25 69.1172 47.4688C68.8359 47.6875 68.5547 47.875 68.2734 48.0312C68.0234 48.1875 67.8203 48.2656 67.6641 48.2656C67.6016 48.2656 67.5391 48.25 67.4766 48.2188C67.4141 48.2188 67.3516 48.2188 67.2891 48.2188C67.1016 48.2188 66.9141 48.2188 66.7266 48.2188C66.5703 48.25 66.4297 48.1406 66.3047 47.8906C66.2109 47.9844 66.1328 48.0938 66.0703 48.2188C66.0078 48.3438 65.9453 48.4531 65.8828 48.5469C65.8203 48.6719 65.7266 48.7656 65.6016 48.8281C65.5078 48.8906 65.3672 48.8906 65.1797 48.8281L64.9453 48.5469L64.2422 49.1562C63.3672 48.7188 62.5234 48.3438 61.7109 48.0312C60.9297 47.75 60.2266 47.4062 59.6016 47C58.9766 46.5938 58.4453 46.0781 58.0078 45.4531C57.5703 44.7969 57.2578 43.9062 57.0703 42.7812C56.9141 42.5938 56.7422 42.4375 56.5547 42.3125C56.3672 42.1562 56.1484 42.1094 55.8984 42.1719C55.5859 42.7031 55.2109 43.1562 54.7734 43.5312C54.3359 43.9062 53.8984 44.3125 53.4609 44.75C53.3047 44.9062 53.1797 45.0781 53.0859 45.2656C52.9922 45.4531 52.8672 45.625 52.7109 45.7812C52.4609 46.0625 52.1641 46.2656 51.8203 46.3906C51.4766 46.4844 51.1328 46.5781 50.7891 46.6719C50.4453 46.7656 50.1172 46.9219 49.8047 47.1406C49.5234 47.3594 49.3203 47.7344 49.1953 48.2656C48.8203 48.0469 48.4453 47.9844 48.0703 48.0781C47.7891 48.1406 47.4922 48.2031 47.1797 48.2656C46.8672 48.3594 46.5547 48.4062 46.2422 48.4062C45.9609 48.4375 45.6797 48.4062 45.3984 48.3125C45.1172 48.2188 44.8672 48.0156 44.6484 47.7031C44.2109 47.8906 43.8047 47.875 43.4297 47.6562C43.0547 47.4688 42.6953 47.2031 42.3516 46.8594C42.0391 46.4844 41.7266 46.0938 41.4141 45.6875C41.1016 45.2812 40.8047 44.9844 40.5234 44.7969C40.3359 44.2969 40.3516 43.875 40.5703 43.5312C40.7578 43.1562 40.9766 42.8125 41.2266 42.5C41.4453 42.1562 41.6016 41.8281 41.6953 41.5156C41.7891 41.1719 41.6484 40.7656 41.2734 40.2969C41.5859 39.8281 41.8672 39.3438 42.1172 38.8438C42.3672 38.3125 42.6172 37.7969 42.8672 37.2969C43.1484 36.7656 43.4297 36.2656 43.7109 35.7969C44.0234 35.2969 44.3984 34.875 44.8359 34.5312C44.6484 34.3125 44.5547 34.1094 44.5547 33.9219C44.5547 33.7031 44.6016 33.5 44.6953 33.3125C44.7891 33.0938 44.8984 32.8906 45.0234 32.7031C45.1484 32.4844 45.2422 32.2812 45.3047 32.0938L46.6641 31.4375L46.3359 30.3125C46.6797 30.375 46.9297 30.3594 47.0859 30.2656C47.2734 30.1719 47.3984 30.0312 47.4609 29.8438C47.5547 29.6562 47.6172 29.4531 47.6484 29.2344C47.7109 28.9844 47.7891 28.7656 47.8828 28.5781C48.0391 28.2969 48.2734 28.0938 48.5859 27.9688C49.2422 27.4688 49.8828 26.9375 50.5078 26.375C51.1641 25.8125 51.8047 25.2656 52.4297 24.7344C53.0859 24.2031 53.7578 23.7031 54.4453 23.2344C55.1328 22.7344 55.8828 22.3125 56.6953 21.9688C57.2578 22.0625 57.6953 22.2344 58.0078 22.4844C58.3516 22.7344 58.6016 23.0312 58.7578 23.375C58.9453 23.7188 59.0859 24.1094 59.1797 24.5469C59.2734 24.9531 59.3672 25.3594 59.4609 25.7656C59.6172 26.2969 59.8047 26.75 60.0234 27.125C60.2422 27.5 60.6172 27.8125 61.1484 28.0625C60.7109 28.8125 60.5391 29.5625 60.6328 30.3125C60.7266 31.0312 60.8203 31.7969 60.9141 32.6094C61.0078 33.3594 60.9922 34.0938 60.8672 34.8125C60.7734 35.5312 60.3203 36.1719 59.5078 36.7344C59.4453 36.9531 59.4297 37.1875 59.4609 37.4375C59.4922 37.6875 59.5078 37.9375 59.5078 38.1875C59.5078 38.4375 59.4609 38.6719 59.3672 38.8906C59.2734 39.1094 59.1016 39.2812 58.8516 39.4062C59.1328 39.75 59.2734 40.0938 59.2734 40.4375C59.3047 40.7812 59.3203 41.1094 59.3203 41.4219C59.3516 41.7344 59.4297 42.0156 59.5547 42.2656C59.7109 42.5156 60.0547 42.7031 60.5859 42.8281C60.6797 43.2344 60.7578 43.5469 60.8203 43.7656C60.9141 43.9531 61.0078 44.1094 61.1016 44.2344C61.2266 44.3594 61.3828 44.4844 61.5703 44.6094C61.7578 44.7031 62.0078 44.8594 62.3203 45.0781C62.5703 45.1406 62.8516 45.1406 63.1641 45.0781C63.4766 45.0156 63.7266 45.1094 63.9141 45.3594C64.0703 45.2031 64.2578 45.125 64.4766 45.125C64.6953 45.0938 64.8984 45.0938 65.0859 45.125L65.6953 46.1562C66.0391 45.9062 66.4297 45.6875 66.8672 45.5C67.3047 45.3125 67.7266 45.1562 68.1328 45.0312C68.6016 44.9062 69.0703 44.7969 69.5391 44.7031L73.8984 42.0781ZM55.8984 26.0469C55.6172 26.2969 55.2734 26.5469 54.8672 26.7969C54.4609 27.0469 54.0547 27.3125 53.6484 27.5938C53.2734 27.875 52.9453 28.1875 52.6641 28.5312C52.3828 28.8438 52.2109 29.2188 52.1484 29.6562C51.4297 29.7812 50.9297 30.0781 50.6484 30.5469C50.3672 31.0156 50.1328 31.5312 49.9453 32.0938C49.7578 32.6562 49.5547 33.2188 49.3359 33.7812C49.1172 34.3125 48.7266 34.7344 48.1641 35.0469C47.9766 35.1719 47.8047 35.2344 47.6484 35.2344C47.6797 35.2344 47.5859 35.2969 47.3672 35.4219C47.0234 35.6719 46.7266 35.9844 46.4766 36.3594C46.2266 36.7344 46.0078 37.1406 45.8203 37.5781C45.6641 38.0156 45.5078 38.4688 45.3516 38.9375C45.2266 39.375 45.1016 39.7812 44.9766 40.1562C44.5391 40.2188 44.2109 40.3125 43.9922 40.4375C43.7734 40.5625 43.6328 40.7031 43.5703 40.8594C43.5391 40.9844 43.5547 41.1406 43.6172 41.3281C43.6797 41.5156 43.7734 41.7188 43.8984 41.9375C44.0234 42.125 44.1484 42.3438 44.2734 42.5938C44.4297 42.8438 44.5547 43.0938 44.6484 43.3438C44.7422 43.5938 44.7891 43.8438 44.7891 44.0938C44.8203 44.3438 44.7578 44.5781 44.6016 44.7969C45.0391 45.1406 45.4609 45.2188 45.8672 45.0312C46.2734 44.8125 46.6484 44.5781 46.9922 44.3281C47.1172 44.2344 47.2422 44.1406 47.3672 44.0469C47.5234 43.9219 47.6797 43.8281 47.8359 43.7656C48.5547 43.9219 49.2109 43.875 49.8047 43.625C50.3984 43.375 50.9453 43.0312 51.4453 42.5938C51.9453 42.1562 52.4297 41.6875 52.8984 41.1875C53.3672 40.6875 53.8359 40.25 54.3047 39.875L53.9297 39.5C54.4922 39.3438 54.8828 39.1406 55.1016 38.8906C55.3516 38.6094 55.5078 38.2969 55.5703 37.9531C55.6328 37.6094 55.6328 37.25 55.5703 36.875C55.5078 36.4688 55.4609 36.0469 55.4297 35.6094C55.3984 35.3594 55.3828 35.125 55.3828 34.9062C55.4141 34.6562 55.4766 34.4062 55.5703 34.1562C55.3203 33.4375 55.2734 32.75 55.4297 32.0938C55.6172 31.4375 55.8516 30.8125 56.1328 30.2188C56.4453 29.5938 56.7422 28.9688 57.0234 28.3438C57.3047 27.7188 57.4453 27.0625 57.4453 26.375L55.8984 26.0469ZM103.336 31.625C103.367 32.0938 103.273 32.5469 103.055 32.9844C102.867 33.4219 102.695 33.8125 102.539 34.1562L101.039 35.75L100.148 38.4219C99.8047 38.6719 99.4297 38.9219 99.0234 39.1719C98.6484 39.3906 98.3047 39.625 97.9922 39.875C97.6484 40.1562 97.3359 40.4688 97.0547 40.8125C96.8047 41.1562 96.5234 41.4531 96.2109 41.7031C95.8984 41.9531 95.5234 42.1719 95.0859 42.3594C94.6797 42.5156 94.3047 42.7031 93.9609 42.9219C93.3359 43.2969 92.7422 43.6875 92.1797 44.0938C91.6484 44.5 91.0859 44.8906 90.4922 45.2656C90.3359 45.3281 90.2109 45.4062 90.1172 45.5C90.0547 45.5625 89.9453 45.625 89.7891 45.6875C89.6953 45.75 89.2891 45.875 88.5703 46.0625C87.8516 46.25 87.0547 46.4688 86.1797 46.7188C85.3359 46.9375 84.5391 47.1406 83.7891 47.3281C83.0391 47.5156 82.6172 47.6094 82.5234 47.6094C81.9609 47.6719 81.3828 47.7031 80.7891 47.7031C80.1953 47.7031 79.6016 47.7188 79.0078 47.75L78.3047 48.1719C77.9609 47.9219 77.5859 47.6875 77.1797 47.4688C76.7734 47.25 76.4297 47.0156 76.1484 46.7656C75.8359 46.4844 75.5234 46.1719 75.2109 45.8281C74.8984 45.4531 74.6172 45.1094 74.3672 44.7969C74.2109 44.3594 74.0547 43.9375 73.8984 43.5312C73.7422 43.0938 73.6172 42.6719 73.5234 42.2656L73.2891 40.4844C73.2266 39.8906 73.1641 39.3125 73.1016 38.75C73.0703 38.1875 73.0234 37.6094 72.9609 37.0156C73.4922 35.5469 73.9609 34.0781 74.3672 32.6094C74.8047 31.1094 75.3359 29.6406 75.9609 28.2031C76.1172 27.8594 76.2578 27.5156 76.3828 27.1719C76.5391 26.7969 76.6953 26.4375 76.8516 26.0938C77.0391 25.7188 77.2422 25.375 77.4609 25.0625C77.6797 24.7188 77.8672 24.375 78.0234 24.0312C78.1797 23.6562 78.3047 23.2812 78.3984 22.9062C78.4922 22.5 78.6172 22.125 78.7734 21.7812C78.8672 21.5938 79.0234 21.3281 79.2422 20.9844C79.4609 20.6094 79.6953 20.2344 79.9453 19.8594C80.1953 19.4531 80.4297 19.0625 80.6484 18.6875C80.8984 18.3125 81.1016 18.0156 81.2578 17.7969C81.5078 17.4844 81.7578 17.1875 82.0078 16.9062C82.2578 16.625 82.4609 16.3125 82.6172 15.9688C82.9297 15.4375 83.2266 14.7656 83.5078 13.9531C83.7891 13.1406 84.1016 12.4219 84.4453 11.7969C84.8203 11.1094 85.2578 10.4688 85.7578 9.875C86.2891 9.25 86.7734 8.60938 87.2109 7.95312C87.6797 7.29688 88.1328 6.57812 88.5703 5.79688L90.6328 4.29688L91.5703 5.23438L93.8203 4.85938L95.2266 6.96875C95.1641 7.4375 95.0859 7.96875 94.9922 8.5625C94.9297 9.15625 94.8672 9.76562 94.8047 10.3906C94.7734 10.9844 94.7422 11.5781 94.7109 12.1719C94.7109 12.7344 94.7422 13.2344 94.8047 13.6719C94.6484 14.2344 94.4141 14.8281 94.1016 15.4531C93.8203 16.0469 93.4922 16.5625 93.1172 17L92.9297 19.5312L91.0547 21.2188L90.8203 23.6094L89.2266 25.4844C89.1328 25.9219 89.0391 26.375 88.9453 26.8438C88.8516 27.2812 88.7266 27.7031 88.5703 28.1094C88.4141 28.4844 88.2266 28.875 88.0078 29.2812C87.7891 29.6562 87.5703 30.0469 87.3516 30.4531C86.7266 30.9844 86.0859 31.5781 85.4297 32.2344C84.7734 32.8906 84.1797 33.5469 83.6484 34.2031C83.3672 34.5469 83.1016 34.9219 82.8516 35.3281C82.6328 35.7031 82.3984 36.0625 82.1484 36.4062C81.3359 37.4375 80.4609 38.4062 79.5234 39.3125C78.5859 40.2188 77.6641 41.1562 76.7578 42.125L77.7891 43.9531C78.4453 44.1719 79.1172 44.375 79.8047 44.5625C80.4922 44.75 81.1797 44.9219 81.8672 45.0781C82.1797 45.0156 82.5391 44.9531 82.9453 44.8906C83.3516 44.7969 83.7734 44.7031 84.2109 44.6094C84.6484 44.4844 85.0703 44.3594 85.4766 44.2344C85.9141 44.1094 86.2734 43.9844 86.5547 43.8594C87.1797 43.6094 87.8984 43.25 88.7109 42.7812C89.5234 42.2812 90.2109 41.8438 90.7734 41.4688C91.7734 40.8438 92.7891 40.2031 93.8203 39.5469C94.8516 38.8906 95.8359 38.2031 96.7734 37.4844C97.3984 37.0156 98.0547 36.4219 98.7422 35.7031C99.4297 34.9844 100.07 34.3125 100.664 33.6875C101.289 33.0312 101.836 32.5 102.305 32.0938C102.805 31.6875 103.148 31.5312 103.336 31.625ZM90.5859 9.45312C89.9297 10.5469 89.2266 11.6094 88.4766 12.6406C87.7578 13.6406 87.0859 14.6875 86.4609 15.7812C86.2422 16.1562 86.0547 16.5469 85.8984 16.9531C85.7422 17.3281 85.5391 17.7031 85.2891 18.0781C85.0703 18.4219 84.8359 18.7656 84.5859 19.1094C84.3359 19.4531 84.1172 19.8281 83.9297 20.2344C83.5547 20.9531 83.2109 21.7188 82.8984 22.5312C82.6172 23.3125 82.3047 24.0781 81.9609 24.8281C81.5859 25.5781 81.1484 26.2812 80.6484 26.9375C80.1484 27.5938 79.6953 28.2969 79.2891 29.0469L78.5391 30.5469C78.4766 30.7031 78.4141 30.8281 78.3516 30.9219C78.2891 30.9844 78.2266 31.0938 78.1641 31.25C78.0391 31.5938 77.9766 31.9688 77.9766 32.375C77.9766 32.7812 77.9297 33.1562 77.8359 33.5C77.7422 33.875 77.6016 34.2344 77.4141 34.5781C77.2266 34.9219 77.0547 35.2656 76.8984 35.6094C76.7422 35.9531 76.6172 36.3125 76.5234 36.6875C76.4297 37.0312 76.3203 37.375 76.1953 37.7188C76.4453 37.4688 76.7109 37.25 76.9922 37.0625C77.3047 36.8438 77.6016 36.6094 77.8828 36.3594C78.1641 36.0781 78.4297 35.7812 78.6797 35.4688C78.9297 35.1562 79.2109 34.875 79.5234 34.625C79.8047 34.375 80.1016 34.1562 80.4141 33.9688C80.7578 33.75 81.0859 33.5312 81.3984 33.3125C81.8984 32.625 82.3359 31.9219 82.7109 31.2031C82.8984 30.8594 83.0547 30.4688 83.1797 30.0312C83.3359 29.5938 83.5234 29.2031 83.7422 28.8594C83.9297 28.5156 84.1641 28.1875 84.4453 27.875C84.7578 27.5625 85.0234 27.2344 85.2422 26.8906C85.4922 26.5469 85.6953 26.1875 85.8516 25.8125C86.0391 25.4375 86.2422 25.0781 86.4609 24.7344C86.8984 24.0469 87.3828 23.3906 87.9141 22.7656L88.1484 19.8125L89.8359 17.8438L90.0703 16.0625L91.2422 14.4219L91.3828 11.7969L90.5859 9.45312ZM128.461 31.625C128.492 32.0938 128.398 32.5469 128.18 32.9844C127.992 33.4219 127.82 33.8125 127.664 34.1562L126.164 35.75L125.273 38.4219C124.93 38.6719 124.555 38.9219 124.148 39.1719C123.773 39.3906 123.43 39.625 123.117 39.875C122.773 40.1562 122.461 40.4688 122.18 40.8125C121.93 41.1562 121.648 41.4531 121.336 41.7031C121.023 41.9531 120.648 42.1719 120.211 42.3594C119.805 42.5156 119.43 42.7031 119.086 42.9219C118.461 43.2969 117.867 43.6875 117.305 44.0938C116.773 44.5 116.211 44.8906 115.617 45.2656C115.461 45.3281 115.336 45.4062 115.242 45.5C115.18 45.5625 115.07 45.625 114.914 45.6875C114.82 45.75 114.414 45.875 113.695 46.0625C112.977 46.25 112.18 46.4688 111.305 46.7188C110.461 46.9375 109.664 47.1406 108.914 47.3281C108.164 47.5156 107.742 47.6094 107.648 47.6094C107.086 47.6719 106.508 47.7031 105.914 47.7031C105.32 47.7031 104.727 47.7188 104.133 47.75L103.43 48.1719C103.086 47.9219 102.711 47.6875 102.305 47.4688C101.898 47.25 101.555 47.0156 101.273 46.7656C100.961 46.4844 100.648 46.1719 100.336 45.8281C100.023 45.4531 99.7422 45.1094 99.4922 44.7969C99.3359 44.3594 99.1797 43.9375 99.0234 43.5312C98.8672 43.0938 98.7422 42.6719 98.6484 42.2656L98.4141 40.4844C98.3516 39.8906 98.2891 39.3125 98.2266 38.75C98.1953 38.1875 98.1484 37.6094 98.0859 37.0156C98.6172 35.5469 99.0859 34.0781 99.4922 32.6094C99.9297 31.1094 100.461 29.6406 101.086 28.2031C101.242 27.8594 101.383 27.5156 101.508 27.1719C101.664 26.7969 101.82 26.4375 101.977 26.0938C102.164 25.7188 102.367 25.375 102.586 25.0625C102.805 24.7188 102.992 24.375 103.148 24.0312C103.305 23.6562 103.43 23.2812 103.523 22.9062C103.617 22.5 103.742 22.125 103.898 21.7812C103.992 21.5938 104.148 21.3281 104.367 20.9844C104.586 20.6094 104.82 20.2344 105.07 19.8594C105.32 19.4531 105.555 19.0625 105.773 18.6875C106.023 18.3125 106.227 18.0156 106.383 17.7969C106.633 17.4844 106.883 17.1875 107.133 16.9062C107.383 16.625 107.586 16.3125 107.742 15.9688C108.055 15.4375 108.352 14.7656 108.633 13.9531C108.914 13.1406 109.227 12.4219 109.57 11.7969C109.945 11.1094 110.383 10.4688 110.883 9.875C111.414 9.25 111.898 8.60938 112.336 7.95312C112.805 7.29688 113.258 6.57812 113.695 5.79688L115.758 4.29688L116.695 5.23438L118.945 4.85938L120.352 6.96875C120.289 7.4375 120.211 7.96875 120.117 8.5625C120.055 9.15625 119.992 9.76562 119.93 10.3906C119.898 10.9844 119.867 11.5781 119.836 12.1719C119.836 12.7344 119.867 13.2344 119.93 13.6719C119.773 14.2344 119.539 14.8281 119.227 15.4531C118.945 16.0469 118.617 16.5625 118.242 17L118.055 19.5312L116.18 21.2188L115.945 23.6094L114.352 25.4844C114.258 25.9219 114.164 26.375 114.07 26.8438C113.977 27.2812 113.852 27.7031 113.695 28.1094C113.539 28.4844 113.352 28.875 113.133 29.2812C112.914 29.6562 112.695 30.0469 112.477 30.4531C111.852 30.9844 111.211 31.5781 110.555 32.2344C109.898 32.8906 109.305 33.5469 108.773 34.2031C108.492 34.5469 108.227 34.9219 107.977 35.3281C107.758 35.7031 107.523 36.0625 107.273 36.4062C106.461 37.4375 105.586 38.4062 104.648 39.3125C103.711 40.2188 102.789 41.1562 101.883 42.125L102.914 43.9531C103.57 44.1719 104.242 44.375 104.93 44.5625C105.617 44.75 106.305 44.9219 106.992 45.0781C107.305 45.0156 107.664 44.9531 108.07 44.8906C108.477 44.7969 108.898 44.7031 109.336 44.6094C109.773 44.4844 110.195 44.3594 110.602 44.2344C111.039 44.1094 111.398 43.9844 111.68 43.8594C112.305 43.6094 113.023 43.25 113.836 42.7812C114.648 42.2812 115.336 41.8438 115.898 41.4688C116.898 40.8438 117.914 40.2031 118.945 39.5469C119.977 38.8906 120.961 38.2031 121.898 37.4844C122.523 37.0156 123.18 36.4219 123.867 35.7031C124.555 34.9844 125.195 34.3125 125.789 33.6875C126.414 33.0312 126.961 32.5 127.43 32.0938C127.93 31.6875 128.273 31.5312 128.461 31.625ZM115.711 9.45312C115.055 10.5469 114.352 11.6094 113.602 12.6406C112.883 13.6406 112.211 14.6875 111.586 15.7812C111.367 16.1562 111.18 16.5469 111.023 16.9531C110.867 17.3281 110.664 17.7031 110.414 18.0781C110.195 18.4219 109.961 18.7656 109.711 19.1094C109.461 19.4531 109.242 19.8281 109.055 20.2344C108.68 20.9531 108.336 21.7188 108.023 22.5312C107.742 23.3125 107.43 24.0781 107.086 24.8281C106.711 25.5781 106.273 26.2812 105.773 26.9375C105.273 27.5938 104.82 28.2969 104.414 29.0469L103.664 30.5469C103.602 30.7031 103.539 30.8281 103.477 30.9219C103.414 30.9844 103.352 31.0938 103.289 31.25C103.164 31.5938 103.102 31.9688 103.102 32.375C103.102 32.7812 103.055 33.1562 102.961 33.5C102.867 33.875 102.727 34.2344 102.539 34.5781C102.352 34.9219 102.18 35.2656 102.023 35.6094C101.867 35.9531 101.742 36.3125 101.648 36.6875C101.555 37.0312 101.445 37.375 101.32 37.7188C101.57 37.4688 101.836 37.25 102.117 37.0625C102.43 36.8438 102.727 36.6094 103.008 36.3594C103.289 36.0781 103.555 35.7812 103.805 35.4688C104.055 35.1562 104.336 34.875 104.648 34.625C104.93 34.375 105.227 34.1562 105.539 33.9688C105.883 33.75 106.211 33.5312 106.523 33.3125C107.023 32.625 107.461 31.9219 107.836 31.2031C108.023 30.8594 108.18 30.4688 108.305 30.0312C108.461 29.5938 108.648 29.2031 108.867 28.8594C109.055 28.5156 109.289 28.1875 109.57 27.875C109.883 27.5625 110.148 27.2344 110.367 26.8906C110.617 26.5469 110.82 26.1875 110.977 25.8125C111.164 25.4375 111.367 25.0781 111.586 24.7344C112.023 24.0469 112.508 23.3906 113.039 22.7656L113.273 19.8125L114.961 17.8438L115.195 16.0625L116.367 14.4219L116.508 11.7969L115.711 9.45312ZM197.602 32.7031C197.633 33.0781 197.539 33.4531 197.32 33.8281C197.102 34.2031 196.898 34.5312 196.711 34.8125C196.617 34.9062 196.43 35.0469 196.148 35.2344C195.898 35.3906 195.617 35.5469 195.305 35.7031C195.023 35.8594 194.742 36.0312 194.461 36.2188C194.211 36.375 194.055 36.5 193.992 36.5938C193.836 36.8438 193.648 37.1719 193.43 37.5781C193.242 37.9844 193.07 38.3125 192.914 38.5625C192.477 39.125 192.039 39.5625 191.602 39.875C191.195 40.1875 190.758 40.4688 190.289 40.7188C189.852 40.9375 189.383 41.1562 188.883 41.375C188.383 41.5938 187.836 41.9062 187.242 42.3125L186.867 43.4844C186.211 43.4219 185.742 43.4531 185.461 43.5781C185.211 43.6719 185.023 43.8281 184.898 44.0469C184.805 44.2656 184.711 44.5156 184.617 44.7969C184.555 45.0781 184.398 45.3594 184.148 45.6406C184.023 45.7969 183.805 45.9531 183.492 46.1094C183.211 46.2656 182.992 46.3594 182.836 46.3906C182.586 46.3906 182.367 46.375 182.18 46.3438C182.023 46.3125 181.883 46.2969 181.758 46.2969C181.664 46.2969 181.586 46.3438 181.523 46.4375C181.461 46.5 181.43 46.6562 181.43 46.9062H181.336C180.992 46.9062 180.68 46.9844 180.398 47.1406C180.117 47.3281 179.836 47.5 179.555 47.6562C179.273 47.8125 178.992 47.9062 178.711 47.9375C178.43 48 178.117 47.9219 177.773 47.7031H177.727C177.727 46.9531 177.586 46.4062 177.305 46.0625C177.055 45.6875 176.758 45.3594 176.414 45.0781C176.07 44.7656 175.742 44.4219 175.43 44.0469C175.148 43.6719 174.977 43.1094 174.914 42.3594C174.852 41.6406 174.93 40.9062 175.148 40.1562C175.398 39.4062 175.523 38.6719 175.523 37.9531C175.523 37.5156 175.445 37.1406 175.289 36.8281C175.133 36.5156 175.055 36.1875 175.055 35.8438C175.055 35.5312 175.133 35.2656 175.289 35.0469C175.477 34.8281 175.648 34.625 175.805 34.4375C175.992 34.25 176.102 34.0312 176.133 33.7812C176.195 33.5312 176.102 33.2188 175.852 32.8438V32.7969C175.852 32.5156 175.914 32.1719 176.039 31.7656C176.164 31.3281 176.258 30.9688 176.32 30.6875C176.508 29.9062 176.68 29.1406 176.836 28.3906C177.023 27.6094 177.18 26.8438 177.305 26.0938C177.492 24.9375 177.68 23.8125 177.867 22.7188C178.055 21.5938 178.336 20.4844 178.711 19.3906L178.758 19.3438L178.43 18.875H178.57C179.008 18.75 179.289 18.4844 179.414 18.0781C179.57 17.6719 179.664 17.2344 179.695 16.7656C179.727 16.2969 179.742 15.8594 179.742 15.4531C179.773 15.0156 179.914 14.7031 180.164 14.5156C180.008 14.3594 179.852 14.2031 179.695 14.0469C179.57 13.8594 179.43 13.6875 179.273 13.5312C179.242 13.5625 179.227 13.6094 179.227 13.6719C178.945 14.5781 178.508 15.3594 177.914 16.0156C177.352 16.6406 176.758 17.2656 176.133 17.8906C175.539 18.4844 174.992 19.1406 174.492 19.8594C173.992 20.5469 173.664 21.4219 173.508 22.4844C172.977 23.3906 172.492 24.3281 172.055 25.2969C171.648 26.2656 171.211 27.2344 170.742 28.2031C170.273 29.1719 169.758 30.1094 169.195 31.0156C168.664 31.8906 168.023 32.6875 167.273 33.4062C167.273 33.4688 167.273 33.5469 167.273 33.6406C167.305 33.7344 167.32 33.8125 167.32 33.875C167.32 34.1562 167.258 34.3906 167.133 34.5781C167.008 34.7656 166.867 34.9531 166.711 35.1406C166.555 35.2969 166.383 35.4688 166.195 35.6562C166.008 35.8125 165.852 35.9844 165.727 36.1719C165.727 36.6719 165.602 37.1406 165.352 37.5781C165.102 37.9844 164.82 38.375 164.508 38.75C164.227 39.125 163.961 39.5 163.711 39.875C163.461 40.25 163.336 40.625 163.336 41C163.336 41.7812 163.195 42.375 162.914 42.7812C162.633 43.1562 162.289 43.4688 161.883 43.7188C161.508 43.9375 161.102 44.1719 160.664 44.4219C160.258 44.6406 159.914 44.9688 159.633 45.4062V45.4531C159.539 45.4219 159.43 45.4375 159.305 45.5C159.18 45.5625 159.039 45.5469 158.883 45.4531C158.727 45.3906 158.617 45.2344 158.555 44.9844C158.523 44.7031 158.492 44.4062 158.461 44.0938C158.43 43.7812 158.398 43.5 158.367 43.25C158.336 43 158.273 42.8438 158.18 42.7812C158.305 42.6875 158.477 42.375 158.695 41.8438C158.914 41.3125 159.117 40.7188 159.305 40.0625C159.523 39.4062 159.711 38.7812 159.867 38.1875C160.055 37.5938 160.18 37.2031 160.242 37.0156C160.367 36.6094 160.477 36.2031 160.57 35.7969C160.695 35.3906 160.836 34.9844 160.992 34.5781C161.055 34.4219 161.117 34.25 161.18 34.0625C161.273 33.8438 161.336 33.6562 161.367 33.5C161.398 33.25 161.414 32.9844 161.414 32.7031C161.445 32.4219 161.477 32.1406 161.508 31.8594L161.602 31.8125C161.852 31.8125 162.023 31.7031 162.117 31.4844C162.242 31.2344 162.32 30.9688 162.352 30.6875C162.383 30.375 162.383 30.0625 162.352 29.75C162.352 29.4375 162.367 29.2031 162.398 29.0469C162.648 27.5469 162.977 26 163.383 24.4062C163.789 22.7812 163.992 21.2188 163.992 19.7188V19.0156C164.023 18.5156 164.07 18 164.133 17.4688C164.195 16.9375 164.211 16.4062 164.18 15.875C164.18 15.3125 164.102 14.7812 163.945 14.2812C163.82 13.7812 163.602 13.3125 163.289 12.875V12.8281C162.289 12.8281 161.367 13.1406 160.523 13.7656C159.68 14.3594 158.898 15.1094 158.18 16.0156C157.492 16.8906 156.883 17.8281 156.352 18.8281C155.82 19.7969 155.383 20.6562 155.039 21.4062L154.945 21.5L154.664 21.0781L154.617 21.125C154.086 21.5 153.711 21.9062 153.492 22.3438C153.305 22.75 153.117 23.25 152.93 23.8438C152.742 24.4688 152.508 25.0625 152.227 25.625C151.977 26.1875 151.539 26.5938 150.914 26.8438L150.867 26.8906C150.867 27.6094 150.758 28.1562 150.539 28.5312C150.32 28.875 150.07 29.1875 149.789 29.4688C149.539 29.75 149.305 30.0781 149.086 30.4531C148.867 30.7969 148.758 31.3438 148.758 32.0938L148.711 32.1406C148.086 32.6094 147.648 33.1094 147.398 33.6406C147.148 34.1719 146.898 34.7812 146.648 35.4688C146.43 36 146.227 36.5156 146.039 37.0156C145.852 37.4844 145.57 37.9219 145.195 38.3281L145.242 38.4219C145.43 38.5156 145.492 38.7031 145.43 38.9844C145.398 39.2344 145.398 39.4375 145.43 39.5938C145.117 40.125 144.805 40.625 144.492 41.0938C144.18 41.5312 143.898 41.9844 143.648 42.4531C143.43 42.8906 143.242 43.3594 143.086 43.8594C142.93 44.3594 142.852 44.9375 142.852 45.5938V45.6406H142.758C142.227 45.7031 141.852 45.9062 141.633 46.25C141.414 46.5625 141.242 46.9375 141.117 47.375C141.023 47.8125 140.961 48.25 140.93 48.6875C140.898 49.125 140.805 49.4688 140.648 49.7188C140.523 49.9688 140.305 50.0781 139.992 50.0469C139.68 50.0469 139.211 49.7969 138.586 49.2969L137.32 48.3594C137.664 47.6094 137.992 46.8594 138.305 46.1094C138.586 45.3281 138.836 44.5312 139.055 43.7188C139.273 42.9062 139.508 42.1094 139.758 41.3281C140.008 40.5469 140.383 39.7969 140.883 39.0781V39.0312C140.883 38.9062 140.914 38.7031 140.977 38.4219C141.07 38.1094 141.164 37.7812 141.258 37.4375C141.352 37.0938 141.445 36.7812 141.539 36.5C141.664 36.1875 141.758 35.9531 141.82 35.7969C142.07 35.2656 142.289 34.75 142.477 34.25C142.695 33.75 142.805 33.1875 142.805 32.5625C143.086 32.125 143.305 31.6562 143.461 31.1562C143.617 30.625 143.758 30.0938 143.883 29.5625C144.039 29.0312 144.211 28.5156 144.398 28.0156C144.617 27.5156 144.914 27.0625 145.289 26.6562C145.289 26.625 145.336 26.4219 145.43 26.0469C145.555 25.6719 145.68 25.2656 145.805 24.8281C145.93 24.3906 146.039 23.9688 146.133 23.5625C146.258 23.1562 146.336 22.9062 146.367 22.8125C146.711 21.6875 146.992 20.625 147.211 19.625C147.461 18.5938 147.586 17.4844 147.586 16.2969C147.586 16.0469 147.57 15.7969 147.539 15.5469C147.508 15.2656 147.508 15 147.539 14.75C148.07 13.9375 148.523 13.0469 148.898 12.0781C149.273 11.1094 149.539 10.1562 149.695 9.21875V9.17188C149.602 8.98438 149.461 8.73438 149.273 8.42188C149.086 8.10938 148.914 7.90625 148.758 7.8125C148.414 7.65625 148.055 7.65625 147.68 7.8125C147.305 7.9375 146.914 8.0625 146.508 8.1875C146.102 8.3125 145.711 8.34375 145.336 8.28125C144.961 8.21875 144.617 7.90625 144.305 7.34375V7.25C143.898 7.40625 143.539 7.59375 143.227 7.8125C142.945 8 142.539 8 142.008 7.8125L141.961 7.76562C141.961 7.42188 141.867 7.125 141.68 6.875C141.492 6.59375 141.32 6.3125 141.164 6.03125C141.008 6.21875 140.82 6.3125 140.602 6.3125C140.383 6.3125 140.148 6.28125 139.898 6.21875C139.648 6.15625 139.414 6.07812 139.195 5.98438C138.945 5.85938 138.742 5.76562 138.586 5.70312L138.492 5.65625C138.398 5.25 138.227 4.95312 137.977 4.76562C137.727 4.54688 137.461 4.35938 137.18 4.20312C136.898 4.04688 136.664 3.875 136.477 3.6875C136.258 3.46875 136.148 3.15625 136.148 2.75C136.148 2.28125 136.273 1.875 136.523 1.53125C136.742 1.15625 137.023 0.890625 137.367 0.734375C137.711 0.578125 138.086 0.53125 138.492 0.59375C138.898 0.65625 139.273 0.859375 139.617 1.20312V1.25C139.773 1.40625 140.008 1.59375 140.32 1.8125C140.633 2.03125 140.945 2.26562 141.258 2.51562C141.602 2.73438 141.93 2.92188 142.242 3.07812C142.586 3.23438 142.867 3.3125 143.086 3.3125C143.211 3.21875 143.32 3.20312 143.414 3.26562C143.539 3.29688 143.633 3.35938 143.695 3.45312C143.789 3.54688 143.883 3.65625 143.977 3.78125C144.07 3.875 144.164 3.92188 144.258 3.92188C144.477 3.85938 144.617 3.71875 144.68 3.5L144.727 3.54688C145.008 3.64062 145.305 3.60938 145.617 3.45312C145.961 3.26562 146.305 3.09375 146.648 2.9375C147.023 2.75 147.398 2.65625 147.773 2.65625C148.18 2.625 148.57 2.8125 148.945 3.21875C149.008 3.125 149.133 3.04688 149.32 2.98438C149.508 2.92188 149.664 2.89062 149.789 2.89062C150.195 2.89062 150.555 3.07812 150.867 3.45312C151.586 4.35938 152.023 5.375 152.18 6.5C152.336 7.625 152.414 8.73438 152.414 9.82812V11.1875V11.2344C152.164 11.7031 151.945 12.1719 151.758 12.6406C151.602 13.1094 151.523 13.6094 151.523 14.1406C151.523 14.2344 151.523 14.3594 151.523 14.5156C151.555 14.6719 151.586 14.8438 151.617 15.0312C151.648 15.1875 151.664 15.3438 151.664 15.5C151.695 15.625 151.711 15.7031 151.711 15.7344C151.617 16.2969 151.477 16.8594 151.289 17.4219C151.102 17.9844 150.914 18.5312 150.727 19.0625C150.383 20.0312 150.086 21.0156 149.836 22.0156C149.586 22.9844 149.43 23.9844 149.367 25.0156C149.992 24.0781 150.305 23 150.305 21.7812L150.352 21.7344C151.133 21.1094 151.773 20.4375 152.273 19.7188C152.773 18.9688 153.258 18.1719 153.727 17.3281C154.258 16.3906 154.836 15.4688 155.461 14.5625C156.117 13.6562 156.977 13 158.039 12.5938C158.383 12.25 158.695 11.9062 158.977 11.5625C159.289 11.2188 159.664 10.9688 160.102 10.8125L160.148 10.7656L160.43 11.2344C160.555 11.1406 160.648 11.0469 160.711 10.9531C160.805 10.8594 160.898 10.7656 160.992 10.6719C161.305 10.3594 161.492 10.1562 161.555 10.0625C161.617 9.9375 161.648 9.65625 161.648 9.21875C162.117 8.84375 162.539 8.64062 162.914 8.60938C163.32 8.57812 163.68 8.65625 163.992 8.84375C164.336 9 164.68 9.21875 165.023 9.5C165.367 9.78125 165.727 10.0312 166.102 10.25V10.2969C166.352 11.8906 166.57 13.4688 166.758 15.0312C166.977 16.5938 167.086 18.1875 167.086 19.8125C167.086 20.6562 167.055 21.4219 166.992 22.1094C166.961 22.7656 166.883 23.4219 166.758 24.0781C166.664 24.7031 166.523 25.3438 166.336 26C166.18 26.6562 165.992 27.375 165.773 28.1562V28.2031C166.211 28.6719 166.602 28.8281 166.945 28.6719C167.32 28.5156 167.664 28.2344 167.977 27.8281C168.289 27.3906 168.57 26.9375 168.82 26.4688C169.102 25.9688 169.367 25.5938 169.617 25.3438H169.664C169.633 25.0312 169.727 24.6562 169.945 24.2188C170.164 23.75 170.414 23.2812 170.695 22.8125C170.977 22.3438 171.227 21.9062 171.445 21.5C171.664 21.0625 171.758 20.75 171.727 20.5625C172.352 19.6562 172.914 18.7656 173.414 17.8906C173.945 16.9844 174.43 16.0469 174.867 15.0781C175.023 15.2031 175.148 15.2031 175.242 15.0781C175.336 14.9531 175.43 14.8438 175.523 14.75H175.57C175.695 14 175.945 13.3906 176.32 12.9219C176.727 12.4219 177.164 11.9844 177.633 11.6094C178.133 11.2031 178.648 10.8125 179.18 10.4375C179.711 10.0625 180.195 9.625 180.633 9.125C181.32 9.125 181.93 9.26562 182.461 9.54688C183.023 9.79688 183.336 10.3281 183.398 11.1406C183.242 11.6406 183.148 12.1562 183.117 12.6875C183.117 13.1875 183.102 13.7031 183.07 14.2344C183.07 14.7656 183.039 15.2969 182.977 15.8281C182.914 16.3281 182.773 16.8125 182.555 17.2812C182.555 17.3438 182.508 17.5469 182.414 17.8906C182.32 18.2344 182.211 18.625 182.086 19.0625C181.992 19.4688 181.883 19.8594 181.758 20.2344C181.633 20.6094 181.555 20.8438 181.523 20.9375C181.086 22.2812 180.742 23.5625 180.492 24.7812C180.242 25.9688 180.117 27.2969 180.117 28.7656C179.992 28.8906 179.867 29.0156 179.742 29.1406C179.648 29.2656 179.539 29.375 179.414 29.4688L179.461 29.5156C179.586 29.8281 179.648 30.1094 179.648 30.3594C179.648 30.7031 179.555 31.0781 179.367 31.4844C179.211 31.8906 179.055 32.2969 178.898 32.7031C178.773 33.0781 178.711 33.4688 178.711 33.875C178.711 34.25 178.898 34.5938 179.273 34.9062C179.273 35.4062 179.195 35.9531 179.039 36.5469C178.883 37.1094 178.742 37.6875 178.617 38.2812C178.523 38.8438 178.477 39.4062 178.477 39.9688C178.477 40.5312 178.633 41.0469 178.945 41.5156L178.992 41.5625C179.492 41.5625 179.867 41.5156 180.117 41.4219C180.367 41.3281 180.57 41.2656 180.727 41.2344C180.914 41.2031 181.117 41.2344 181.336 41.3281C181.555 41.3906 181.898 41.5938 182.367 41.9375L185.039 40.1094C185.414 39.8281 185.742 39.5312 186.023 39.2188C186.336 38.9062 186.648 38.625 186.961 38.375C187.273 38.125 187.617 37.9375 187.992 37.8125C188.367 37.6875 188.82 37.6719 189.352 37.7656L189.398 37.6719C189.836 37.0469 190.383 36.5156 191.039 36.0781C191.727 35.6406 192.445 35.25 193.195 34.9062C193.945 34.5312 194.711 34.1875 195.492 33.875C196.273 33.5312 196.977 33.1406 197.602 32.7031ZM226.102 32.6562C225.82 32.9375 225.602 33.1562 225.445 33.3125C225.32 33.4688 225.195 33.625 225.07 33.7812C224.977 33.9062 224.852 34.0469 224.695 34.2031C224.57 34.3594 224.367 34.5938 224.086 34.9062C223.836 35.1562 223.602 35.4219 223.383 35.7031C223.164 35.9844 222.914 36.2344 222.633 36.4531C222.258 36.3594 221.961 36.4062 221.742 36.5938C221.555 36.7812 221.367 37 221.18 37.25C221.023 37.4688 220.867 37.6875 220.711 37.9062C220.586 38.0938 220.414 38.1719 220.195 38.1406C219.445 38.5469 218.695 38.9062 217.945 39.2188C217.195 39.5 216.477 39.9219 215.789 40.4844L215.414 40.1094L210.539 42.4531C210.383 42.5156 210.227 42.6094 210.07 42.7344C209.914 42.8594 209.758 42.9688 209.602 43.0625C208.914 43.4375 208.195 43.7812 207.445 44.0938C206.727 44.375 206.008 44.6406 205.289 44.8906L204.68 45.0781C204.93 45.7031 204.93 46.1406 204.68 46.3906C204.43 46.6406 204.07 46.8281 203.602 46.9531C203.133 47.0469 202.617 47.1094 202.055 47.1406C201.492 47.1719 201.055 47.2812 200.742 47.4688C200.367 47.4062 199.977 47.375 199.57 47.375C199.195 47.4062 198.805 47.4531 198.398 47.5156C197.961 47.5781 197.555 47.6094 197.18 47.6094C196.805 47.6094 196.398 47.5625 195.961 47.4688H195.867C195.336 47.7188 194.867 47.7656 194.461 47.6094C194.086 47.4844 193.742 47.2656 193.43 46.9531C193.117 46.6094 192.82 46.2188 192.539 45.7812C192.289 45.3125 192.023 44.8906 191.742 44.5156C191.555 44.2656 191.32 43.9062 191.039 43.4375C190.758 42.9688 190.523 42.4688 190.336 41.9375C190.117 41.4062 189.992 40.875 189.961 40.3438C189.898 39.7812 190.008 39.2969 190.289 38.8906C190.57 38.4844 190.805 38.0469 190.992 37.5781C191.148 37.1094 191.227 36.5625 191.227 35.9375C191.227 35.7188 191.227 35.5156 191.227 35.3281C191.195 35.1406 191.18 34.9375 191.18 34.7188C191.336 34.7188 191.508 34.7344 191.695 34.7656C191.883 34.7656 192.055 34.7656 192.211 34.7656C192.398 34.7344 192.539 34.6719 192.633 34.5781C192.758 34.4531 192.82 34.25 192.82 33.9688C192.82 33.8125 192.758 33.6875 192.633 33.5938C192.539 33.5 192.477 33.4062 192.445 33.3125C192.633 33.0312 192.805 32.8125 192.961 32.6562C193.148 32.4688 193.305 32.2969 193.43 32.1406C193.555 31.9531 193.648 31.75 193.711 31.5312C193.773 31.2812 193.758 30.9531 193.664 30.5469C194.039 29.8906 194.477 29.3125 194.977 28.8125C195.508 28.2812 196.055 27.7969 196.617 27.3594C197.18 26.8906 197.758 26.4375 198.352 26C198.945 25.5625 199.508 25.0938 200.039 24.5938C200.633 24.8438 201.102 24.8438 201.445 24.5938C201.82 24.3438 202.148 24.0781 202.43 23.7969C202.711 23.4844 202.992 23.2344 203.273 23.0469C203.555 22.8594 203.93 22.9375 204.398 23.2812L204.492 23.375C205.336 22.5312 206.18 22.1562 207.023 22.25C207.898 22.3438 208.633 22.625 209.227 23.0938C209.852 23.5625 210.258 24.1094 210.445 24.7344C210.633 25.3281 210.461 25.7344 209.93 25.9531C210.273 26.2969 210.445 26.7031 210.445 27.1719C210.445 27.6406 210.32 28.0469 210.07 28.3906C209.789 28.7656 209.539 29.1562 209.32 29.5625C209.133 29.9375 208.93 30.3438 208.711 30.7812C208.398 31.5 208.055 32.1875 207.68 32.8438C207.305 33.4688 206.773 34 206.086 34.4375C205.523 34.2812 205.133 34.3438 204.914 34.625C204.727 34.9062 204.586 35.2188 204.492 35.5625C204.398 35.875 204.289 36.125 204.164 36.3125C204.039 36.5 203.773 36.4375 203.367 36.125L203.273 36.0312L203.18 36.125C202.93 36.375 202.727 36.6562 202.57 36.9688C202.445 37.2812 202.258 37.5156 202.008 37.6719C201.727 37.5781 201.43 37.5 201.117 37.4375C200.805 37.375 200.508 37.3125 200.227 37.25C200.227 37.9062 200.102 38.4219 199.852 38.7969C199.602 39.1719 199.273 39.4844 198.867 39.7344C198.492 39.9531 198.055 40.1406 197.555 40.2969C197.055 40.4219 196.555 40.5938 196.055 40.8125C195.586 41 195.133 41.25 194.695 41.5625C194.289 41.8438 193.961 42.25 193.711 42.7812C194.023 43.125 194.414 43.3281 194.883 43.3906C195.352 43.4219 195.836 43.4219 196.336 43.3906C196.836 43.3281 197.32 43.2969 197.789 43.2969C198.289 43.2969 198.727 43.4219 199.102 43.6719L199.148 43.7188L199.195 43.6719C199.945 43.5781 200.664 43.4062 201.352 43.1562C202.07 42.875 202.758 42.5938 203.414 42.3125C204.102 42 204.789 41.7188 205.477 41.4688C206.195 41.1875 206.93 40.9844 207.68 40.8594C207.836 41.1094 208.039 41.25 208.289 41.2812C208.57 41.3125 208.836 41.2969 209.086 41.2344L209.133 41.1406C209.195 40.9219 209.258 40.7344 209.32 40.5781C209.383 40.3906 209.477 40.1875 209.602 39.9688C209.82 39.625 210.086 39.3594 210.398 39.1719C210.711 38.9844 211.039 38.8438 211.383 38.75C211.758 38.6562 212.148 38.5938 212.555 38.5625C212.961 38.5312 213.367 38.4844 213.773 38.4219H213.867L213.914 38.2812C214.039 37.9062 214.195 37.6562 214.383 37.5312C214.602 37.375 214.82 37.2656 215.039 37.2031C215.289 37.1406 215.539 37.0938 215.789 37.0625C216.07 37.0312 216.336 36.9375 216.586 36.7812C217.148 36.9688 217.617 36.9062 217.992 36.5938C218.367 36.2812 218.727 35.9531 219.07 35.6094L219.445 36.0781L219.586 35.8906C220.055 35.4531 220.398 35.125 220.617 34.9062C220.867 34.6875 221.102 34.5 221.32 34.3438C221.539 34.1562 221.789 33.9844 222.07 33.8281C222.383 33.6406 222.805 33.375 223.336 33.0312C223.773 32.75 224.195 32.4688 224.602 32.1875C225.039 31.9062 225.461 31.5938 225.867 31.25C226.023 31.3125 226.102 31.4375 226.102 31.625C226.102 31.7812 226.102 31.9375 226.102 32.0938C226.07 32.1562 226.039 32.25 226.008 32.375C226.008 32.5 226.039 32.5938 226.102 32.6562ZM206.695 26.7969C206.664 26.7656 206.633 26.75 206.602 26.75C206.602 26.75 206.586 26.7344 206.555 26.7031C205.898 26.3594 205.352 26.2031 204.914 26.2344C204.477 26.2344 204.07 26.3594 203.695 26.6094C203.352 26.8281 203.023 27.125 202.711 27.5C202.43 27.8438 202.117 28.1719 201.773 28.4844C201.461 28.7656 201.086 28.9844 200.648 29.1406C200.211 29.2969 199.68 29.2812 199.055 29.0938C198.961 29.5938 198.867 30.0938 198.773 30.5938C198.711 31.0625 198.664 31.5469 198.633 32.0469C198.102 32.2344 197.68 32.5 197.367 32.8438C197.086 33.1875 196.836 33.5625 196.617 33.9688C196.43 34.375 196.242 34.8125 196.055 35.2812C195.898 35.7188 195.68 36.1406 195.398 36.5469L195.586 36.7812C195.711 36.7188 195.852 36.7656 196.008 36.9219C196.164 37.0781 196.273 37.1875 196.336 37.25C196.68 36.75 197.133 36.3281 197.695 35.9844C198.289 35.6406 198.883 35.3281 199.477 35.0469C200.102 34.7344 200.695 34.4062 201.258 34.0625C201.82 33.7188 202.242 33.2656 202.523 32.7031C203.523 32.4219 204.273 31.8594 204.773 31.0156C205.273 30.1719 205.695 29.2969 206.039 28.3906C206.102 28.2031 206.211 27.9375 206.367 27.5938C206.555 27.2188 206.664 26.9531 206.695 26.7969ZM240.023 5.70312C240.086 6.04688 240.07 6.40625 239.977 6.78125C239.914 7.15625 239.836 7.54688 239.742 7.95312C239.648 8.32812 239.555 8.71875 239.461 9.125C239.398 9.5 239.398 9.89062 239.461 10.2969L238.711 11.2812L239.039 11.5156C238.602 11.7031 238.305 12.0156 238.148 12.4531C238.023 12.8906 237.93 13.3438 237.867 13.8125C237.805 14.2812 237.695 14.7344 237.539 15.1719C237.414 15.5781 237.117 15.875 236.648 16.0625C236.586 16.8125 236.398 17.5312 236.086 18.2188C235.773 18.9062 235.445 19.5938 235.102 20.2812C234.977 20.4688 234.836 20.6719 234.68 20.8906C234.555 21.0781 234.461 21.2656 234.398 21.4531C234.273 21.7969 234.164 22.1094 234.07 22.3906C234.008 22.6719 233.898 22.9688 233.742 23.2812C233.586 23.6562 233.398 24.0156 233.18 24.3594C232.961 24.6719 232.758 25 232.57 25.3438C232.508 25.5 232.445 25.6719 232.383 25.8594C232.32 26.0469 232.242 26.2188 232.148 26.375C231.867 26.9375 231.586 27.4844 231.305 28.0156C231.055 28.5156 230.898 29.0938 230.836 29.75C230.398 30.125 230.055 30.5625 229.805 31.0625C229.586 31.5625 229.367 32.0625 229.148 32.5625C228.961 33.0625 228.758 33.5312 228.539 33.9688C228.32 34.375 228.023 34.7188 227.648 35C227.398 34.875 227.211 34.7031 227.086 34.4844C226.961 34.2344 226.867 33.9844 226.805 33.7344C226.773 33.4844 226.742 33.2188 226.711 32.9375C226.711 32.6562 226.68 32.4062 226.617 32.1875C227.055 31.9688 227.336 31.6719 227.461 31.2969C227.586 30.9219 227.648 30.5312 227.648 30.125C227.648 29.6875 227.648 29.2656 227.648 28.8594C227.68 28.4219 227.789 28.0312 227.977 27.6875C228.07 27.5312 228.164 27.4219 228.258 27.3594C228.352 27.2969 228.461 27.2031 228.586 27.0781C228.961 26.7344 229.258 26.2812 229.477 25.7188C229.727 25.125 229.945 24.5 230.133 23.8438C230.32 23.1562 230.492 22.4844 230.648 21.8281C230.836 21.1719 231.039 20.6094 231.258 20.1406L232.289 19.1094L231.961 18.8281C232.273 18.3906 232.523 17.9375 232.711 17.4688C232.898 16.9688 233.086 16.4844 233.273 16.0156C233.461 15.5469 233.695 15.0938 233.977 14.6562C234.258 14.2188 234.633 13.8438 235.102 13.5312C234.945 12.8438 234.914 12.2188 235.008 11.6562C235.133 11.0625 235.336 10.5 235.617 9.96875C235.898 9.4375 236.227 8.92188 236.602 8.42188C237.008 7.92188 237.398 7.40625 237.773 6.875C237.617 6.25 237.742 5.73438 238.148 5.32812C238.336 5.35938 238.523 5.34375 238.711 5.28125C238.898 5.21875 239.086 5.17188 239.273 5.14062C239.461 5.10938 239.617 5.125 239.742 5.1875C239.867 5.25 239.961 5.42188 240.023 5.70312ZM226.195 43.5781L226.43 43.8125C226.242 44.0312 226.039 44.2656 225.82 44.5156C225.602 44.7656 225.352 45 225.07 45.2188C224.82 45.4062 224.539 45.5625 224.227 45.6875C223.945 45.7812 223.648 45.7812 223.336 45.6875C222.93 45.75 222.555 45.6406 222.211 45.3594C221.898 45.0781 221.758 44.7344 221.789 44.3281C221.82 43.9219 221.93 43.6094 222.117 43.3906C222.336 43.1719 222.539 42.9219 222.727 42.6406L222.586 42.4531C222.586 42.2031 222.617 42.0312 222.68 41.9375C222.742 41.8438 222.805 41.6875 222.867 41.4688C222.961 40.9688 223.18 40.6094 223.523 40.3906C223.898 40.1406 224.289 40.0312 224.695 40.0625C225.133 40.0625 225.523 40.2031 225.867 40.4844C226.211 40.7344 226.414 41.0938 226.477 41.5625C226.57 41.7188 226.586 41.9062 226.523 42.125C226.492 42.3125 226.43 42.4844 226.336 42.6406C226.43 42.7344 226.602 42.8438 226.852 42.9688L226.195 43.5781Z" fill="black"/>
</svg>
