<svg width="411" height="272" viewBox="0 0 411 272" fill="none" xmlns="http://www.w3.org/2000/svg">
<path d="M-120 -63C-120 -69.5997 -120 -72.8995 -117.95 -74.9497C-115.899 -77 -112.6 -77 -106 -77H429C435.6 -77 438.899 -77 440.95 -74.9497C443 -72.8995 443 -69.5997 443 -63V230.068C443 233.99 437.491 234.858 436.285 231.126V231.126C406.994 140.474 297.095 105.709 220.997 163.023L140.082 223.966V223.966C66.0062 273.664 -27.2773 285.204 -111.23 255.057L-119.49 252.091C-119.796 251.981 -120 251.691 -120 251.365V-63Z" fill="#D2D2D2"/>
</svg>
